<svg width="325" height="316" viewBox="0 0 325 316" fill="none" xmlns="http://www.w3.org/2000/svg">
<path d="M252.028 274.546C252.23 277.486 229.131 279.621 226.966 279.835C204.466 282.055 181.109 280.733 158.68 278.279C137.802 275.995 117.293 270.957 97.4143 264.259C77.9021 257.685 58.1593 248.244 45.5395 231.367C29.8963 210.447 19.7484 177.204 25.8256 151.555C35.1482 112.208 58.2633 69.2193 90.9386 44.3699C103.989 34.4454 120.243 30.2714 136.038 27.1878C154.83 23.519 171.856 22.9372 190.669 26.9374C227.279 34.7222 263.599 49.1265 283.371 83.1042C291.211 96.5787 295.96 113.378 298.938 128.632C302.117 144.914 301.489 159 296.156 174.685C291.195 189.273 282.838 206.087 271.274 216.562C259.766 226.985 247.618 229.557 232.609 232.488C219.984 234.952 206.636 238.969 193.737 238.944C181.02 238.92 167.975 235.687 155.864 231.961C138.727 226.688 122.649 217.298 113.031 201.889C104.647 188.458 98.2666 170.723 98.7236 154.7C99.3017 134.426 110.68 113.705 124.94 99.657C137.505 87.2784 152.439 82.8665 169.398 79.7699C181.676 77.528 202.974 78.6913 212.262 88.8356C233.12 111.616 217.563 147.22 202.895 169.005" stroke="black" stroke-width="3" stroke-linecap="round"/>
<path d="M147 132C147 132.605 142.443 126.576 142.056 124.444C141.265 120.096 141.285 114 146.5 114C150.895 114 150.882 117.266 149.222 121C148.079 123.572 150.739 130.279 146 130C140.506 129.677 148.764 107.187 151.056 117.5C151.987 121.69 152.355 123.971 150.222 128C148.407 131.428 143.417 129.548 143 126C142.765 124.001 138.681 119.255 141.5 117C144.5 114.6 146.236 112.595 150.444 115C156.45 118.432 147.404 133.291 142.222 125C138.343 118.793 148.022 109.277 153 115.5C158.011 121.764 156.44 129 148 129" stroke="black" stroke-width="3" stroke-linecap="round"/>
</svg>
